<?xml version="1.0" encoding="UTF-8"?>
<svg version="1.1" xmlns="http://www.w3.org/2000/svg" width="44" height="46">
<path d="M0 0 C5.28 2.64 10.56 5.28 16 8 C17.51842674 25.8330785 17.51842674 25.8330785 14.125 30.67578125 C11.49621311 32.46253484 8.91271924 33.73308553 6 35 C4.15499129 36.12693745 2.32100024 37.27216603 0.5 38.4375 C-3.72845953 41 -3.72845953 41 -6 41 C-6.11613204 37.89614789 -6.18722029 34.79285338 -6.25 31.6875 C-6.28351562 30.80642578 -6.31703125 29.92535156 -6.3515625 29.01757812 C-6.45066069 22.50187213 -6.45066069 22.50187213 -4.109375 19.89453125 C-2 19 -2 19 0 19 C0 12.73 0 6.46 0 0 Z " fill="#484848" transform="translate(26,5)"/>
<path d="M0 0 C0.11613204 3.10385211 0.18722029 6.20714662 0.25 9.3125 C0.28351562 10.19357422 0.31703125 11.07464844 0.3515625 11.98242188 C0.45066069 18.49812787 0.45066069 18.49812787 -1.890625 21.10546875 C-4 22 -4 22 -6 22 C-6 28.27 -6 34.54 -6 41 C-11.28 38.36 -16.56 35.72 -22 33 C-23.51842674 15.1669215 -23.51842674 15.1669215 -20.125 10.32421875 C-17.49621311 8.53746516 -14.91271924 7.26691447 -12 6 C-10.15499129 4.87306255 -8.32100024 3.72783397 -6.5 2.5625 C-2.27154047 0 -2.27154047 0 0 0 Z " fill="#F64479" transform="translate(24,0)"/>
<path d="M0 0 C0.66 0 1.32 0 2 0 C3.6117046 4.8351138 3.60116168 10.19651495 2 15 C3.68973726 15.88556744 3.68973726 15.88556744 6 16 C8.04291182 14.73339467 10.04690112 13.40113616 12 12 C12.66 12 13.32 12 14 12 C14 17.94 14 23.88 14 30 C8.72 27.36 3.44 24.72 -2 22 C-2.05376941 18.70811731 -2.09356106 15.41710574 -2.125 12.125 C-2.14175781 11.18785156 -2.15851562 10.25070313 -2.17578125 9.28515625 C-2.18544922 7.94130859 -2.18544922 7.94130859 -2.1953125 6.5703125 C-2.20578613 5.74289551 -2.21625977 4.91547852 -2.22705078 4.06298828 C-2 2 -2 2 0 0 Z " fill="#5194FC" transform="translate(4,11)"/>
<path d="M0 0 C7.92 3.96 7.92 3.96 16 8 C12.78547033 10.57162373 9.7068653 12.96788004 6.3125 15.25 C5.54550781 15.77078125 4.77851563 16.2915625 3.98828125 16.828125 C2 18 2 18 0 18 C0 12.06 0 6.12 0 0 Z " fill="#333333" transform="translate(26,5)"/>
<path d="M0 0 C0.14285714 7.42857143 0.14285714 7.42857143 -1 11 C-0.01 10.67 0.98 10.34 2 10 C2.66 12.31 3.32 14.62 4 17 C-1.41538462 21.06153846 -1.41538462 21.06153846 -4.375 20.75 C-4.91125 20.5025 -5.4475 20.255 -6 20 C-6.33 18.35 -6.66 16.7 -7 15 C-6.67 15 -6.34 15 -6 15 C-6.05800781 14.16855469 -6.11601563 13.33710938 -6.17578125 12.48046875 C-6.22089844 11.39378906 -6.26601562 10.30710937 -6.3125 9.1875 C-6.37050781 8.10855469 -6.42851563 7.02960937 -6.48828125 5.91796875 C-6 3 -6 3 -3.54296875 1.11328125 C-1 0 -1 0 0 0 Z " fill="#F02CA8" transform="translate(12,7)"/>
<path d="M0 0 C0 6.27 0 12.54 0 19 C-1.98 19.99 -1.98 19.99 -4 21 C-5.71154696 15.223529 -7.26047358 9.01395445 -6 3 C-2.82352941 0 -2.82352941 0 0 0 Z " fill="#FB6F4D" transform="translate(24,0)"/>
<path d="M0 0 C0.66 0 1.32 0 2 0 C3.6117046 4.8351138 3.60116168 10.19651495 2 15 C2.99 16.485 2.99 16.485 4 18 C0.25 21 0.25 21 -2 21 C-2.05791844 17.87507749 -2.09356746 14.75029234 -2.125 11.625 C-2.14175781 10.73554688 -2.15851562 9.84609375 -2.17578125 8.9296875 C-2.18222656 8.07890625 -2.18867187 7.228125 -2.1953125 6.3515625 C-2.20578613 5.56604004 -2.21625977 4.78051758 -2.22705078 3.97119141 C-2 2 -2 2 0 0 Z " fill="#BB7FF3" transform="translate(4,11)"/>
<path d="M0 0 C0 3.3 0 6.6 0 10 C-1.98 10 -3.96 10 -6 10 C-6.68707555 7.50935112 -7 5.62113708 -7 3 C-2.77777778 0 -2.77777778 0 0 0 Z " fill="#7762F9" transform="translate(18,23)"/>
<path d="M0 0 C0.66 0 1.32 0 2 0 C2 6.27 2 12.54 2 19 C1.34 19.33 0.68 19.66 0 20 C-1.14544072 13.70007602 -1.34294666 7.3949465 -1 1 C-0.67 0.67 -0.34 0.34 0 0 Z " fill="#FD8733" transform="translate(22,0)"/>
<path d="M0 0 C0.66 0 1.32 0 2 0 C3.3271261 3.9813783 3.06915913 7.85045227 3 12 C2.34 11.67 1.68 11.34 1 11 C1 10.34 1 9.68 1 9 C0.01 9 -0.98 9 -2 9 C-2.125 5.625 -2.125 5.625 -2 2 C-1.34 1.34 -0.68 0.68 0 0 Z " fill="#C245DB" transform="translate(4,11)"/>
<path d="M0 0 C0.99 0.33 1.98 0.66 3 1 C3.12375 1.969375 3.2475 2.93875 3.375 3.9375 C3.58125 4.948125 3.7875 5.95875 4 7 C4.66 7.33 5.32 7.66 6 8 C3 10 3 10 0.8125 9.625 C0.214375 9.41875 -0.38375 9.2125 -1 9 C-1.80967438 6.08517222 -2.21845993 4.53886783 -1.0625 1.6875 C-0.711875 1.130625 -0.36125 0.57375 0 0 Z " fill="#E961CD" transform="translate(7,18)"/>
<path d="M0 0 C2.0625 0.4375 2.0625 0.4375 4 1 C4 3.64 4 6.28 4 9 C2.02 8.01 0.04 7.02 -2 6 C-1.125 1.125 -1.125 1.125 0 0 Z " fill="#A489FB" transform="translate(14,32)"/>
<path d="M0 0 C1.65 0 3.3 0 5 0 C5.66 2.31 6.32 4.62 7 7 C5.35 7.33 3.7 7.66 2 8 C1.34 5.36 0.68 2.72 0 0 Z " fill="#F45CB0" transform="translate(9,17)"/>
<path d="M0 0 C0.33 0 0.66 0 1 0 C1.33 3.96 1.66 7.92 2 12 C1.01 12.495 1.01 12.495 0 13 C-2.32617985 9.36534398 -2.31404687 6.23963281 -2 2 C-1.34 1.34 -0.68 0.68 0 0 Z " fill="#F84C5E" transform="translate(17,3)"/>
<path d="M0 0 C1.4606285 2.64738916 2 3.89448334 2 7 C0.35 7.33 -1.3 7.66 -3 8 C-3.33 6.35 -3.66 4.7 -4 3 C-3.01 3 -2.02 3 -1 3 C-0.67 2.01 -0.34 1.02 0 0 Z " fill="#F86C7F" transform="translate(18,15)"/>
<path d="M0 0 C0.33 0 0.66 0 1 0 C3.42857143 7.42857143 3.42857143 7.42857143 2 11 C1.01 11 0.02 11 -1 11 C-0.67 7.37 -0.34 3.74 0 0 Z " fill="#F44093" transform="translate(12,7)"/>
<path d="M0 0 C0.99 0.33 1.98 0.66 3 1 C2.67 2.65 2.34 4.3 2 6 C0.35 5.01 -1.3 4.02 -3 3 C-2.01 2.01 -1.02 1.02 0 0 Z " fill="#7B97FC" transform="translate(10,32)"/>
<path d="M0 0 C0.66 0 1.32 0 2 0 C3.60725635 3.21451269 3.05748185 6.43612536 3 10 C-0.00617269 6.99382731 0.40414684 4.17618402 0 0 Z " fill="#DB33C6" transform="translate(6,10)"/>
<path d="M0 0 C1.76462683 3.08809695 2 4.23312136 2 8 C1.01 8 0.02 8 -1 8 C-1.04241723 5.66705225 -1.04092937 3.33297433 -1 1 C-0.67 0.67 -0.34 0.34 0 0 Z " fill="#A84AEC" transform="translate(3,12)"/>
<path d="M0 0 C0 2.31 0 4.62 0 7 C-3 5 -3 5 -3.6875 2.875 C-3.790625 2.25625 -3.89375 1.6375 -4 1 C-2 0 -2 0 0 0 Z " fill="#8243F7" transform="translate(18,23)"/>
<path d="M0 0 C0.99 0 1.98 0 3 0 C3.66 1.98 4.32 3.96 5 6 C3.68 5.67 2.36 5.34 1 5 C0.67 3.35 0.34 1.7 0 0 Z " fill="#D471E0" transform="translate(5,22)"/>
</svg>
