<svg xmlns="http://www.w3.org/2000/svg" viewBox="0 0 48 48" width="48px" height="48px">
  <path fill="#FC8019" d="M24,4C12.954,4,4,12.954,4,24s8.954,20,20,20s20-8.954,20-20S35.046,4,24,4z"/>
  <path fill="#ffffff" d="M31.84,20.72c-1.36-1.44-3.28-2.24-5.28-2.24c-2,0-3.92,0.8-5.28,2.24 c-1.44,1.36-2.24,3.28-2.24,5.28c0,2,0.8,3.92,2.24,5.28c1.36,1.44,3.28,2.24,5.28,2.24c2,0,3.92-0.8,5.28-2.24 c1.44-1.36,2.24-3.28,2.24-5.28C34.08,24,33.28,22.08,31.84,20.72z M26.56,29.76c-1.04,0-2-0.4-2.72-1.12 c-0.72-0.72-1.12-1.68-1.12-2.72c0-1.04,0.4-2,1.12-2.72c0.72-0.72,1.68-1.12,2.72-1.12c1.04,0,2,0.4,2.72,1.12 c0.72,0.72,1.12,1.68,1.12,2.72c0,1.04-0.4,2-1.12,2.72C28.56,29.36,27.6,29.76,26.56,29.76z"/>
</svg> 